<svg width="56" height="49" viewBox="0 0 56 49" fill="none" xmlns="http://www.w3.org/2000/svg">
<g clip-path="url(#clip0_1_282)">
<path d="M49.9331 27.1837V23.154V23.1375C49.9331 21.486 47.1747 20.7428 44.6144 20.7428C42.0542 20.7428 39.3123 21.486 39.2958 23.121V23.1375V32.5676C39.2297 32.2703 39.1636 31.9565 39.081 31.6593L39.0645 31.5767C38.3873 29.1325 34.2579 20.6437 31.6481 15.392C31.6316 15.3424 31.5986 15.2764 31.5655 15.2268C30.7231 13.5423 30.0459 12.2046 29.7156 11.544L33.3329 1.71755C33.366 1.65149 33.3659 1.56893 33.3659 1.48635C33.3659 0.6606 32.6392 0 31.7637 0H14.8827C13.9908 0 13.2805 0.677115 13.2805 1.48635C13.2805 1.56893 13.297 1.63498 13.3136 1.71755L16.8814 11.3788C16.3858 12.3697 14.5359 16.0526 12.6033 20.0162C9.58059 26.2423 7.84623 30.1399 7.43329 31.6427C6.44223 35.243 7.169 39.0084 9.43192 41.9811C11.6948 44.9538 15.1305 46.6549 18.8635 46.6549H27.6674C28.3281 46.6549 28.9888 46.6053 29.6495 46.4897V46.6218C29.6495 46.6714 29.666 46.7209 29.666 46.7705C29.9303 48.3064 32.6557 49 35.1333 49C37.611 49 40.3364 48.3064 40.6007 46.7705C40.6172 46.7209 40.6172 46.6714 40.6172 46.6053C40.6172 46.5888 40.6172 46.5723 40.6172 46.5558V46.5393C40.6172 46.5393 40.6172 46.5393 40.6172 46.5228V44.2437C41.6578 44.7557 43.1939 45.0034 44.631 45.0034C47.026 45.0034 49.6854 44.3263 49.9331 42.8234C49.9496 42.7738 49.9496 42.7243 49.9496 42.6582V38.7607V38.7442V34.8962V34.8797V31.0647V31.0482L49.9331 27.1837ZM44.6144 22.064C47.2077 22.064 48.5952 22.8568 48.6117 23.1375C48.5952 23.4183 47.2077 24.211 44.6144 24.211C42.0212 24.211 40.6172 23.4183 40.6172 23.1375C40.6172 22.8568 42.0212 22.064 44.6144 22.064ZM30.9544 34.5659C30.9544 34.2686 32.3914 33.4264 35.1168 33.4264C37.8422 33.4264 39.2627 34.2686 39.2793 34.5659C39.2627 34.8632 37.8257 35.6889 35.1168 35.6889C32.3914 35.7054 30.9544 34.8632 30.9544 34.5659ZM18.0046 12.1055H21.1925H28.4932C28.7575 12.6175 29.2696 13.6414 29.9303 14.9626H16.5675C17.2282 13.6414 17.7403 12.6175 18.0046 12.1055ZM14.8827 1.35422H31.7637C31.8959 1.35422 31.9785 1.40377 32.028 1.46983L28.5924 10.7843H25.1897L25.966 6.34175C26.0321 5.97842 25.7844 5.64813 25.421 5.58207C25.0576 5.51601 24.7272 5.76373 24.6612 6.12706L23.8518 10.8008H21.7706L20.7795 3.40209C20.73 3.03876 20.3996 2.79103 20.0362 2.84057C19.6728 2.89012 19.4251 3.22042 19.4746 3.58375L20.4326 10.8008H18.0541L14.6185 1.48635C14.6515 1.40378 14.7506 1.35422 14.8827 1.35422ZM27.6509 45.3502H18.847C15.5269 45.3502 12.4712 43.8308 10.4725 41.2049C8.45738 38.5625 7.81318 35.2265 8.70514 32.0226C9.08504 30.6188 10.8524 26.6882 13.7926 20.6272C14.5359 19.0913 15.2792 17.605 15.9233 16.2838H30.591C33.1842 21.5025 37.1485 29.6609 37.7761 31.94L37.7927 32.0226C37.8257 32.1547 37.8587 32.2868 37.8918 32.4189C37.0329 32.2208 36.0583 32.1217 35.1003 32.1217C32.4575 32.1217 29.6165 32.8979 29.6165 34.5824C29.6165 34.5824 29.6165 34.5824 29.6165 34.5989V45.185C28.9888 45.3006 28.3116 45.3502 27.6509 45.3502ZM35.1168 47.7118C32.4905 47.7118 30.9874 46.9026 30.9544 46.5888V46.5723V45.6805V36.2504C32.028 36.7789 33.6137 37.0431 35.1168 37.0431C36.6364 37.0431 38.2056 36.7954 39.2793 36.2504V38.5956C39.2627 38.8928 37.8257 39.7186 35.1168 39.7186C34.2083 39.7186 33.3329 39.6195 32.5731 39.4378C32.2262 39.3552 31.8629 39.5699 31.7637 39.9168C31.6812 40.2636 31.8959 40.6269 32.2427 40.726C33.0851 40.9407 34.0762 41.0563 35.1003 41.0563C36.6199 41.0563 38.1891 40.8086 39.2627 40.2636V42.6087C39.2462 42.906 37.8092 43.7317 35.1003 43.7317C34.1918 43.7317 33.3164 43.6326 32.5566 43.451C32.2097 43.3684 31.8463 43.5831 31.7472 43.9299C31.6646 44.2767 31.8794 44.6401 32.2262 44.7391C33.0686 44.9538 34.0597 45.0694 35.0838 45.0694C36.6034 45.0694 38.1726 44.8217 39.2462 44.2767V46.5888C39.2462 46.9026 37.7431 47.7118 35.1168 47.7118ZM44.6144 43.7317C42.0872 43.7317 40.6502 42.972 40.6172 42.6582V42.6417V42.6252V24.789C41.6578 25.301 43.1774 25.5322 44.6144 25.5322C46.068 25.5322 47.5711 25.2845 48.6117 24.789V27.1837C48.5952 27.4644 47.1912 28.2572 44.6144 28.2572C43.739 28.2572 42.8801 28.1581 42.1698 27.9764C41.823 27.8938 41.4596 28.1085 41.3605 28.4553C41.2779 28.8022 41.4926 29.1655 41.8395 29.2646C42.6654 29.4793 43.6234 29.5784 44.6144 29.5784C46.068 29.5784 47.5711 29.3306 48.6117 28.8352V31.0647C48.5952 31.3455 47.1912 32.1382 44.6144 32.1382C43.739 32.1382 42.8801 32.0391 42.1698 31.8574C41.823 31.7749 41.4596 31.9895 41.3605 32.3364C41.2779 32.6832 41.4926 33.0465 41.8395 33.1456C42.6654 33.3603 43.6234 33.4594 44.6144 33.4594C46.068 33.4594 47.5711 33.2117 48.6117 32.7162V34.9457C48.5952 35.2265 47.1912 36.0192 44.6144 36.0192C43.739 36.0192 42.8801 35.9201 42.1698 35.7385C41.823 35.6559 41.4596 35.8706 41.3605 36.2174C41.2779 36.5642 41.4926 36.9275 41.8395 37.0266C42.6654 37.2413 43.6234 37.3404 44.6144 37.3404C46.068 37.3404 47.5711 37.0927 48.6117 36.5972V38.8268C48.5952 39.1075 47.1912 39.9002 44.6144 39.9002C43.739 39.9002 42.8801 39.8012 42.1698 39.6195C41.823 39.5369 41.4596 39.7516 41.3605 40.0984C41.2779 40.4452 41.4926 40.8086 41.8395 40.9076C42.6654 41.1223 43.6234 41.2214 44.6144 41.2214C46.068 41.2214 47.5711 40.9737 48.6117 40.4783V42.6748V42.6913C48.5622 42.972 47.1251 43.7317 44.6144 43.7317Z" fill="#F4C625" fill-opacity="0.8"/>
<path d="M25.8999 30.5361C25.4044 30.2223 24.7272 29.892 23.8682 29.5452C23.0919 29.2314 22.5138 28.9672 22.1174 28.7525C21.721 28.5378 21.4236 28.3066 21.2254 28.0258C21.0272 27.7451 20.9281 27.4148 20.9281 27.0184C20.9281 26.4404 21.1594 25.9945 21.6219 25.6807C22.0844 25.3669 22.7451 25.2018 23.6205 25.2018C24.6941 25.2018 25.7678 25.433 26.8249 25.9119V24.31C26.2963 24.0622 25.7513 23.8971 25.1897 23.7815C24.7272 23.6989 24.2316 23.6494 23.67 23.6329V21.3208C23.67 20.9574 23.3727 20.6602 23.0093 20.6602C22.646 20.6602 22.3486 20.9574 22.3486 21.3208V23.6989C21.8861 23.765 21.4567 23.8806 21.0603 24.0622C20.3995 24.343 19.904 24.7394 19.5406 25.2678C19.1773 25.7798 18.9956 26.3743 18.9956 27.0349C18.9956 27.9268 19.2598 28.6534 19.7884 29.2314C20.317 29.8095 21.1924 30.3379 22.3817 30.8334C23.2571 31.1802 23.8848 31.461 24.2647 31.6591C24.6446 31.8573 24.9419 32.0885 25.1566 32.3528C25.3548 32.617 25.4705 32.9638 25.4705 33.4097C25.4705 34.6814 24.529 35.309 22.6294 35.309C21.2915 35.309 20.0362 35.0447 18.8634 34.4997V36.1677C19.3094 36.3824 19.8875 36.5641 20.5978 36.6797C21.1759 36.7788 21.754 36.8449 22.3321 36.8614V39.1074C22.3321 39.4707 22.6294 39.768 22.9928 39.768C23.3562 39.768 23.6535 39.4707 23.6535 39.1074V36.8283C24.7437 36.7293 25.6191 36.4485 26.2303 35.9696C27.0231 35.3585 27.403 34.5162 27.403 33.4097C27.403 32.7326 27.2709 32.1711 27.0066 31.7087C26.7754 31.2463 26.3955 30.8499 25.8999 30.5361Z" fill="#F4C625" fill-opacity="0.8"/>
</g>
<defs>
<clipPath id="clip0_1_282">
<rect width="56" height="49" fill="white"/>
</clipPath>
</defs>
</svg>
