<svg width="56" height="49" viewBox="0 0 56 49" fill="none" xmlns="http://www.w3.org/2000/svg">
<path d="M8.0592 22.9594C8.08883 22.9594 8.10365 22.9594 8.13327 22.9594C8.42956 22.9594 8.68141 22.7372 8.72585 22.4409C9.92581 12.6058 18.3107 5.19977 28.2215 5.19977C33.3177 5.19977 38.1471 7.14014 41.8211 10.6654C42.0581 10.8876 42.4285 10.8876 42.6655 10.6506C42.8877 10.4136 42.8877 10.0433 42.6507 9.8063C38.7545 6.07368 33.6288 4 28.2215 4C17.7033 4 8.81473 11.8652 7.5407 22.278C7.49626 22.6335 7.73329 22.9297 8.0592 22.9594Z" fill="#F4C625" fill-opacity="0.8"/>
<path d="M48.4585 25.2848C48.1326 25.27 47.8511 25.5218 47.8363 25.8477C47.3178 36.3049 38.6958 44.496 28.2221 44.496C22.5334 44.496 17.141 42.0372 13.4078 37.7417C13.2004 37.4899 12.8152 37.4751 12.5781 37.6825C12.3263 37.9046 12.3115 38.2749 12.5189 38.5119C16.4743 43.0592 22.2075 45.6661 28.2369 45.6661C39.3477 45.6661 48.4881 36.9863 49.0362 25.8921C49.0362 25.5811 48.7844 25.2996 48.4585 25.2848Z" fill="#F4C625" fill-opacity="0.8"/>
<path d="M28.161 37.1788C28.5758 37.1788 28.9017 36.853 28.9017 36.4382V33.461C30.3831 33.3425 31.5535 32.9574 32.3831 32.3205C33.4053 31.5354 33.9238 30.4245 33.9238 28.9878C33.9238 28.0991 33.7608 27.3733 33.4201 26.7808C33.0794 26.1883 32.5905 25.6847 31.9387 25.2848C31.2868 24.87 30.4128 24.4405 29.2869 23.9813C28.2795 23.5666 27.5092 23.2259 27.0055 22.9445C26.487 22.6631 26.1018 22.352 25.85 21.9965C25.5833 21.641 25.4648 21.1967 25.4648 20.6783C25.4648 19.9228 25.7611 19.3304 26.3685 18.9304C26.961 18.5157 27.8351 18.3083 28.9758 18.3083C30.3831 18.3083 31.7757 18.6194 33.1386 19.2267V17.1382C32.4423 16.8271 31.7312 16.5901 31.0053 16.4568C30.3831 16.3383 29.6721 16.2643 28.9165 16.2495V13.2574C28.9165 12.8427 28.5906 12.5168 28.1758 12.5168C27.761 12.5168 27.4351 12.8427 27.4351 13.2574V16.3235C26.7833 16.4124 26.1759 16.5753 25.6277 16.8123C24.7685 17.1826 24.1167 17.701 23.6426 18.3676C23.1686 19.0341 22.9315 19.8043 22.9315 20.6783C22.9315 21.8336 23.2723 22.7816 23.9685 23.537C24.6648 24.2924 25.7907 24.9885 27.361 25.6255C28.5017 26.0846 29.3165 26.4401 29.8202 26.7067C30.3239 26.9734 30.7091 27.2696 30.9757 27.6251C31.2424 27.9658 31.3757 28.4249 31.3757 29.0026C31.3757 30.6615 30.1461 31.491 27.6869 31.491C25.9388 31.491 24.2944 31.1355 22.7834 30.4246V32.6019C23.3611 32.8833 24.1167 33.1055 25.05 33.2833C25.8351 33.4314 26.6351 33.5055 27.4351 33.5203V36.4678C27.4203 36.8529 27.761 37.1788 28.161 37.1788Z" fill="#F4C625" fill-opacity="0.8"/>
<path d="M55.8362 15.5237L47.9105 7.67336C47.7476 7.51043 47.4809 7.45119 47.2587 7.54006C47.0365 7.62893 46.8883 7.85111 46.8883 8.0881V12.5317H39.0516C38.7256 12.5317 38.459 12.7983 38.459 13.1242V18.7527C38.459 19.0786 38.7256 19.3452 39.0516 19.3452H46.8883V23.7888C46.8883 24.0258 47.0365 24.248 47.2587 24.3369C47.3328 24.3665 47.4068 24.3813 47.4809 24.3813C47.6291 24.3813 47.792 24.3221 47.8957 24.2036L55.8214 16.3532C55.9399 16.2347 55.9992 16.0866 55.9992 15.9385C55.9992 15.7903 55.9399 15.6274 55.8362 15.5237ZM48.0883 22.3669V18.7527C48.0883 18.4269 47.8216 18.1603 47.4957 18.1603H39.6589V13.7167H47.4957C47.8216 13.7167 48.0883 13.45 48.0883 13.1242V9.51006L54.577 15.9385L48.0883 22.3669Z" fill="#F4C625" fill-opacity="0.8"/>
<path d="M17.555 35.9793V30.3507C17.555 30.0249 17.2883 29.7583 16.9624 29.7583H9.12564V25.3147C9.12564 25.0777 8.97749 24.8555 8.75528 24.7666C8.53306 24.6777 8.28121 24.7222 8.10344 24.8999L0.177769 32.7503C0.0592547 32.8688 0 33.0169 0 33.165C0 33.3131 0.0592547 33.4761 0.177769 33.5797L8.10344 41.4301C8.22196 41.5486 8.3701 41.6078 8.51825 41.6078C8.59232 41.6078 8.66639 41.593 8.74046 41.5634C8.96268 41.4745 9.11082 41.2524 9.11082 41.0154V36.5718H16.9476C17.2883 36.5718 17.555 36.3052 17.555 35.9793ZM16.3698 35.3868H8.53306C8.20715 35.3868 7.94049 35.6534 7.94049 35.9793V39.5934L1.4518 33.165L7.94049 26.7366V30.3507C7.94049 30.6766 8.20715 30.9432 8.53306 30.9432H16.3698V35.3868Z" fill="#F4C625" fill-opacity="0.8"/>
</svg>
