<svg width="56" height="50" viewBox="0 0 56 50" fill="none" xmlns="http://www.w3.org/2000/svg">
<g clip-path="url(#clip0_1_302)">
<path d="M28.3245 22.2323C28.2257 22.1402 28.1103 22.0942 27.9785 22.0942C27.8467 22.0942 27.7149 22.1402 27.6325 22.2323L19.477 29.8262C19.3287 29.9643 19.2957 30.1484 19.3781 30.3325C19.4605 30.5166 19.6417 30.624 19.8394 30.624H24.0737V49.5398C24.0737 49.8006 24.2879 50 24.568 50H31.422C31.7021 50 31.9162 49.8006 31.9162 49.5398V30.624H35.9858C36.1835 30.624 36.3647 30.5166 36.4471 30.3478C36.5295 30.1791 36.48 29.9797 36.3482 29.8416L28.3245 22.2323ZM31.389 29.6882C31.1089 29.6882 30.8948 29.8876 30.8948 30.1484V49.0642H25.0293V30.1484C25.0293 29.8876 24.8151 29.6882 24.5351 29.6882H21.0092L27.962 23.2142L34.7666 29.6882H31.389Z" fill="#F4C625" fill-opacity="0.8"/>
<path d="M51.8184 23.2295L43.844 15.6356C43.7452 15.5436 43.6299 15.4976 43.4981 15.4976C43.3663 15.4976 43.2344 15.5436 43.1521 15.6356L34.9965 23.2295C34.8482 23.3676 34.8153 23.5517 34.8976 23.7358C34.98 23.9199 35.1613 24.0273 35.359 24.0273H39.5933V49.5398C39.5933 49.8006 39.8074 50.0001 40.0875 50.0001H46.9415C47.2216 50.0001 47.4358 49.8006 47.4358 49.5398V24.0273H51.5053C51.703 24.0273 51.8843 23.9199 51.9666 23.7512C52.049 23.5824 51.9667 23.3523 51.8184 23.2295ZM46.9086 23.0915C46.6285 23.0915 46.4143 23.2909 46.4143 23.5517V49.0643H40.5489V23.5517C40.5489 23.2909 40.3347 23.0915 40.0546 23.0915H36.5288L43.4816 16.6175L50.2861 23.0915H46.9086Z" fill="#F4C625" fill-opacity="0.8"/>
<path d="M13.9905 30.808C13.8917 30.716 13.7763 30.6699 13.6445 30.6699C13.5127 30.6699 13.3809 30.716 13.2985 30.808L5.143 38.4019C4.99472 38.54 4.96175 38.7241 5.04413 38.9082C5.12651 39.0923 5.30775 39.1997 5.50546 39.1997H9.73974V49.5397C9.73974 49.8005 9.95393 49.9999 10.234 49.9999H17.088C17.3681 49.9999 17.5823 49.8005 17.5823 49.5397V39.1997H21.6518C21.8495 39.1997 22.0307 39.0923 22.1131 38.9235C22.1955 38.7548 22.1461 38.5553 22.0143 38.4173L13.9905 30.808ZM17.0715 38.2638C16.7914 38.2638 16.5772 38.4633 16.5772 38.7241V49.0641H10.7118V38.7241C10.7118 38.4633 10.4977 38.2638 10.2176 38.2638H6.69171L13.6445 31.7898L20.449 38.2638H17.0715Z" fill="#F4C625" fill-opacity="0.8"/>
<path d="M13.7623 29.1514C17.4694 29.1514 20.468 26.3439 20.468 22.9075C20.468 19.4711 17.4529 16.6636 13.7623 16.6636C10.0553 16.6636 7.05664 19.4711 7.05664 22.9075C7.05664 26.3439 10.0718 29.1514 13.7623 29.1514ZM13.7623 17.8909C16.728 17.8909 19.1499 20.1461 19.1499 22.9075C19.1499 25.6689 16.728 27.9241 13.7623 27.9241C10.7967 27.9241 8.37471 25.6689 8.37471 22.9075C8.37471 20.1461 10.7967 17.8909 13.7623 17.8909Z" fill="#F4C625" fill-opacity="0.8"/>
<path d="M11.539 25.991C11.6543 26.0677 11.7861 26.0984 11.9015 26.0984C12.1156 26.0984 12.3134 26.0063 12.4452 25.8222L16.3499 20.4221C16.5476 20.1459 16.4653 19.7624 16.1687 19.563C15.8721 19.3789 15.4603 19.4556 15.2461 19.7317L11.3413 25.1319C11.1435 25.4234 11.226 25.8069 11.539 25.991Z" fill="#F4C625" fill-opacity="0.8"/>
<path d="M11.3421 22.5393C11.9023 22.6313 12.4296 22.2785 12.5284 21.7569C12.6273 21.2353 12.2483 20.7443 11.6881 20.6523C11.128 20.5603 10.6007 20.9131 10.5019 21.4347C10.4195 21.9563 10.7819 22.4472 11.3421 22.5393Z" fill="#F4C625" fill-opacity="0.8"/>
<path d="M14.9337 23.7972C14.8348 24.3188 15.2138 24.8098 15.7739 24.9018C16.3341 24.9939 16.8613 24.641 16.9602 24.1194C17.059 23.5978 16.6801 23.1069 16.1199 23.0148C15.5762 22.9228 15.049 23.2756 14.9337 23.7972Z" fill="#F4C625" fill-opacity="0.8"/>
<path d="M27.3853 20.2073C31.0924 20.2073 34.091 17.3998 34.091 13.9634C34.091 10.5269 31.0759 7.71948 27.3853 7.71948C23.6948 7.71948 20.6797 10.5269 20.6797 13.9634C20.6797 17.3998 23.6783 20.2073 27.3853 20.2073ZM27.3853 8.93143C30.351 8.93143 32.7729 11.1866 32.7729 13.948C32.7729 16.7094 30.351 18.9646 27.3853 18.9646C24.4197 18.9646 21.9978 16.7094 21.9978 13.948C21.9978 11.1866 24.4032 8.93143 27.3853 8.93143Z" fill="#F4C625" fill-opacity="0.8"/>
<path d="M25.1448 17.0469C25.2602 17.1236 25.392 17.1543 25.5073 17.1543C25.7215 17.1543 25.9192 17.0622 26.051 16.8781L29.9558 11.478C30.1535 11.2019 30.0711 10.8183 29.7746 10.6189C29.478 10.4348 29.0661 10.5115 28.8519 10.7877L24.9471 16.1878C24.7659 16.4793 24.8483 16.8628 25.1448 17.0469Z" fill="#F4C625" fill-opacity="0.8"/>
<path d="M24.9634 13.5798C25.5236 13.6719 26.0508 13.319 26.1496 12.7974C26.2485 12.2758 25.8695 11.7849 25.3094 11.6928C24.7492 11.6008 24.222 11.9536 24.1231 12.4752C24.0243 12.9968 24.4032 13.4878 24.9634 13.5798Z" fill="#F4C625" fill-opacity="0.8"/>
<path d="M28.5567 14.8532C28.4578 15.3748 28.8368 15.8657 29.397 15.9577C29.9572 16.0498 30.4844 15.6969 30.5832 15.1753C30.6821 14.6537 30.3032 14.1628 29.743 14.0708C29.1828 13.9787 28.6556 14.3316 28.5567 14.8532Z" fill="#F4C625" fill-opacity="0.8"/>
<path d="M43.483 13.4878C47.1901 13.4878 50.1887 10.6803 50.1887 7.24389C50.1887 3.80744 47.1736 1 43.483 1C39.7924 1 36.7773 3.80744 36.7773 7.24389C36.7773 10.6803 39.7924 13.4878 43.483 13.4878ZM43.483 2.21195C46.4487 2.21195 48.8706 4.4671 48.8706 7.22853C48.8706 9.98996 46.4487 12.2452 43.483 12.2452C40.5174 12.2452 38.0954 9.98996 38.0954 7.22853C38.0954 4.4671 40.5174 2.21195 43.483 2.21195Z" fill="#F4C625" fill-opacity="0.8"/>
<path d="M41.2425 10.3274C41.3578 10.4041 41.4897 10.4348 41.605 10.4348C41.8192 10.4348 42.0168 10.3428 42.1487 10.1587L46.0535 4.75854C46.2512 4.48239 46.1688 4.09885 45.8722 3.89941C45.5756 3.71532 45.1637 3.79204 44.9495 4.06818L41.0448 9.4683C40.8635 9.75978 40.9459 10.128 41.2425 10.3274Z" fill="#F4C625" fill-opacity="0.8"/>
<path d="M41.061 6.86033C41.6212 6.95238 42.1484 6.59951 42.2473 6.07791C42.3462 5.55631 41.9672 5.06539 41.407 4.97334C40.8468 4.8813 40.3196 5.23416 40.2208 5.75576C40.1219 6.27737 40.5009 6.76828 41.061 6.86033Z" fill="#F4C625" fill-opacity="0.8"/>
<path d="M44.6544 8.11828C44.5555 8.63988 44.9344 9.13079 45.4946 9.22284C46.0548 9.31489 46.582 8.96206 46.6809 8.44046C46.7797 7.91886 46.4008 7.42794 45.8406 7.33589C45.2804 7.24385 44.7532 7.59667 44.6544 8.11828Z" fill="#F4C625" fill-opacity="0.8"/>
</g>
<defs>
<clipPath id="clip0_1_302">
<rect width="56" height="49" fill="white" transform="translate(0 0.5)"/>
</clipPath>
</defs>
</svg>
