<svg width="24" height="24" viewBox="0 0 24 24" fill="none" xmlns="http://www.w3.org/2000/svg">
<g filter="url(#filter0_d_1_257)">
<path d="M22.5083 20.4343L18.254 10.0792C18.1754 9.88801 18.0421 9.72452 17.871 9.60948C17.6999 9.49444 17.4986 9.43303 17.2927 9.43303C17.0869 9.43303 16.8856 9.49444 16.7145 9.60948C16.5434 9.72452 16.4101 9.88801 16.3315 10.0792L12.0772 20.4343C12.0243 20.5613 11.9969 20.6976 11.9965 20.8352C11.9962 20.9729 12.0229 21.1093 12.0752 21.2365C12.1274 21.3638 12.2042 21.4794 12.3011 21.5768C12.3979 21.6741 12.513 21.7513 12.6396 21.8038C12.7663 21.8563 12.902 21.8832 13.039 21.8829C13.176 21.8825 13.3115 21.855 13.4379 21.8019C13.5643 21.7487 13.679 21.671 13.7754 21.5732C13.8718 21.4754 13.948 21.3594 13.9997 21.2319L14.8661 19.1233H19.7194L20.5858 21.2319C20.6644 21.4232 20.7977 21.5868 20.9689 21.7019C21.14 21.8169 21.3413 21.8784 21.5473 21.8783C21.7182 21.8782 21.8864 21.8358 22.0371 21.7548C22.1878 21.6739 22.3163 21.5568 22.4113 21.4141C22.5062 21.2713 22.5647 21.1072 22.5816 20.9363C22.5984 20.7655 22.5731 20.593 22.5078 20.4343H22.5083ZM15.725 17.0333L17.293 13.2166L18.8609 17.0333H15.725ZM12.5584 16.127C12.7199 15.9027 12.7863 15.6232 12.743 15.3498C12.6997 15.0764 12.5501 14.8315 12.3272 14.6687C12.3178 14.6616 11.6182 14.1401 10.6023 13.019C12.4766 10.4692 13.5383 7.56836 13.9713 6.2032H15.4967C15.7725 6.2032 16.037 6.0931 16.2321 5.89713C16.4271 5.70115 16.5367 5.43535 16.5367 5.15819C16.5367 4.88104 16.4271 4.61524 16.2321 4.41926C16.037 4.22328 15.7725 4.11318 15.4967 4.11318H10.0134V3.16317C10.0134 2.88602 9.90379 2.62022 9.70876 2.42424C9.51373 2.22826 9.24922 2.11816 8.9734 2.11816C8.69759 2.11816 8.43308 2.22826 8.23805 2.42424C8.04302 2.62022 7.93346 2.88602 7.93346 3.16317V4.11318H2.4501C2.17429 4.11318 1.90978 4.22328 1.71475 4.41926C1.51972 4.61524 1.41016 4.88104 1.41016 5.15819C1.41016 5.43535 1.51972 5.70115 1.71475 5.89713C1.90978 6.0931 2.17429 6.2032 2.4501 6.2032H11.7742C11.3242 7.48334 10.4955 9.50448 9.2315 11.3504C7.74674 9.37053 7.1951 8.08945 7.19084 8.07899C7.08214 7.82657 6.8788 7.62739 6.6249 7.52464C6.37101 7.42189 6.08704 7.42387 5.83459 7.53015C5.58214 7.63642 5.38156 7.83842 5.27636 8.09233C5.17115 8.34625 5.16981 8.6316 5.27261 8.8865C5.30003 8.95205 5.9604 10.5124 7.77132 12.8732C7.81481 12.9297 7.85783 12.9848 7.90084 13.0399C6.04595 15.1466 4.22605 16.4533 3.46452 16.8751C3.22237 17.0078 3.04261 17.2318 2.96478 17.4977C2.88694 17.7636 2.91741 18.0497 3.04949 18.293C3.18157 18.5363 3.40443 18.717 3.66904 18.7952C3.93366 18.8734 4.21836 18.8428 4.46051 18.7101C4.56261 18.654 6.75785 17.4328 9.26459 14.6445C10.3291 15.7883 11.0609 16.3279 11.1048 16.3593C11.2154 16.44 11.3408 16.498 11.4737 16.53C11.6067 16.562 11.7446 16.5674 11.8796 16.5458C12.0146 16.5241 12.1441 16.476 12.2605 16.404C12.377 16.3321 12.4782 16.2378 12.5584 16.1265V16.127Z" fill="#F4C625"/>
</g>
<defs>
<filter id="filter0_d_1_257" x="-6.58984" y="-5.88184" width="37.1765" height="35.7646" filterUnits="userSpaceOnUse" color-interpolation-filters="sRGB">
<feFlood flood-opacity="0" result="BackgroundImageFix"/>
<feColorMatrix in="SourceAlpha" type="matrix" values="0 0 0 0 0 0 0 0 0 0 0 0 0 0 0 0 0 0 127 0" result="hardAlpha"/>
<feOffset/>
<feGaussianBlur stdDeviation="4"/>
<feComposite in2="hardAlpha" operator="out"/>
<feColorMatrix type="matrix" values="0 0 0 0 1 0 0 0 0 0.721569 0 0 0 0 0 0 0 0 0.2 0"/>
<feBlend mode="normal" in2="BackgroundImageFix" result="effect1_dropShadow_1_257"/>
<feBlend mode="normal" in="SourceGraphic" in2="effect1_dropShadow_1_257" result="shape"/>
</filter>
</defs>
</svg>
